<svg width="89" height="74" viewBox="0 0 89 74" fill="none" xmlns="http://www.w3.org/2000/svg">
<g filter="url(#filter0_d_100_379)">
<ellipse cx="40.5" cy="33" rx="40.5" ry="33" transform="rotate(180 40.5 33)" fill="#D9D9D9"/>
<g filter="url(#filter1_d_100_379)">
<path d="M6.29289 32.2929C5.90237 32.6834 5.90237 33.3166 6.29289 33.7071L12.6569 40.0711C13.0474 40.4616 13.6805 40.4616 14.0711 40.0711C14.4616 39.6805 14.4616 39.0474 14.0711 38.6569L8.41422 33L14.0711 27.3431C14.4616 26.9526 14.4616 26.3195 14.0711 25.9289C13.6805 25.5384 13.0474 25.5384 12.6569 25.9289L6.29289 32.2929ZM73 32H7V34H73V32Z" fill="#7A7A7C"/>
</g>
</g>
<defs>
<filter id="filter0_d_100_379" x="0" y="0" width="89" height="74" filterUnits="userSpaceOnUse" color-interpolation-filters="sRGB">
<feFlood flood-opacity="0" result="BackgroundImageFix"/>
<feColorMatrix in="SourceAlpha" type="matrix" values="0 0 0 0 0 0 0 0 0 0 0 0 0 0 0 0 0 0 127 0" result="hardAlpha"/>
<feOffset dx="4" dy="4"/>
<feGaussianBlur stdDeviation="2"/>
<feComposite in2="hardAlpha" operator="out"/>
<feColorMatrix type="matrix" values="0 0 0 0 0 0 0 0 0 0 0 0 0 0 0 0 0 0 0.25 0"/>
<feBlend mode="normal" in2="BackgroundImageFix" result="effect1_dropShadow_100_379"/>
<feBlend mode="normal" in="SourceGraphic" in2="effect1_dropShadow_100_379" result="shape"/>
</filter>
<filter id="filter1_d_100_379" x="6" y="25.636" width="75" height="22.728" filterUnits="userSpaceOnUse" color-interpolation-filters="sRGB">
<feFlood flood-opacity="0" result="BackgroundImageFix"/>
<feColorMatrix in="SourceAlpha" type="matrix" values="0 0 0 0 0 0 0 0 0 0 0 0 0 0 0 0 0 0 127 0" result="hardAlpha"/>
<feOffset dx="4" dy="4"/>
<feGaussianBlur stdDeviation="2"/>
<feComposite in2="hardAlpha" operator="out"/>
<feColorMatrix type="matrix" values="0 0 0 0 0 0 0 0 0 0 0 0 0 0 0 0 0 0 0.25 0"/>
<feBlend mode="normal" in2="BackgroundImageFix" result="effect1_dropShadow_100_379"/>
<feBlend mode="normal" in="SourceGraphic" in2="effect1_dropShadow_100_379" result="shape"/>
</filter>
</defs>
</svg>
