<svg width="103" height="107" viewBox="0 0 103 107" fill="none" xmlns="http://www.w3.org/2000/svg">
<path d="M47.6967 82.4357L50.5684 85.2865L68.225 67.7562C72.7266 63.2867 75.5207 57.0835 75.5207 50.2254C75.5207 36.5477 64.3443 25.4514 50.5684 25.4514C36.7922 25.4514 25.616 36.5477 25.616 50.264C25.616 57.0835 28.41 63.2867 32.9116 67.7562C33.2996 68.1412 33.8041 68.3726 34.3862 68.3726C35.5115 68.3726 36.4041 67.4865 36.4041 66.369C36.4041 65.7908 36.1713 65.2904 35.7832 64.9047C32.019 61.1676 29.6906 55.9662 29.6906 50.264C29.6906 38.8209 39.0817 29.497 50.6072 29.497C62.1326 29.497 71.5238 38.8209 71.5238 50.264C71.5238 56.0047 69.1953 61.1675 65.3923 64.9436L47.6967 82.4357Z" fill="black"/>
<path d="M30.5056 72.3404L20.4935 75.5769L19.6786 74.4212L24.3354 68.372V68.3338L17.0398 70.6453L16.2249 69.4895L22.6667 61.2444L23.7532 62.7857L19.2905 68.2566V68.2949L26.0816 66.1759L26.9741 67.4476L22.6667 73.0728V73.1111L29.3413 70.7996L30.5056 72.3404Z" fill="black"/>
<path d="M21.2316 59.5875L21.4256 60.0884L16.6525 64.7115L15.9151 62.8622L19.5629 59.5105V59.4719L14.5957 59.549L13.8584 57.7382L24.4913 57.8152L25.2286 59.5875H21.2316Z" fill="black"/>
<path d="M20.027 56.8139L18.9016 55.6195C19.2509 55.1957 19.6001 54.3865 19.6001 53.6545C19.6001 52.8454 19.2509 52.306 18.7076 52.306C18.2031 52.306 17.8927 52.7684 17.8927 53.616V54.7718H16.4957V53.5774C16.4957 52.8454 16.1464 52.4216 15.6807 52.4216C15.215 52.4216 14.9046 52.884 14.9046 53.5774C14.9046 54.3095 15.215 55.0031 15.5255 55.4654L14.4389 56.5827C13.8956 55.8507 13.4688 54.7718 13.4688 53.4234C13.4688 51.8437 14.2837 50.6493 15.4867 50.6493C16.1852 50.6493 16.8061 51.1116 17.0777 51.7281H17.1165C17.2717 51.1887 17.7762 50.4952 18.7076 50.4952C20.1046 50.4952 20.9971 51.8437 21.036 53.6545C21.036 55.1186 20.6091 56.1204 20.027 56.8139Z" fill="black"/>
<path d="M16.6526 49.3015C14.4794 48.8391 13.2765 46.9898 13.7033 44.9863C14.0914 43.0213 15.6436 41.7113 18.3213 42.2507L18.6705 42.3278L17.5839 47.5292C18.7093 47.6062 19.4078 46.7971 19.6018 45.8339C19.7183 45.1789 19.6407 44.5239 19.2914 43.9845L20.6108 43.0598C21.1929 44.023 21.3481 45.1404 21.1153 46.2963C20.6885 48.2998 18.9422 49.7638 16.6526 49.3015ZM17.0406 43.9075C16.1481 43.7919 15.3332 44.2928 15.1392 45.2174C14.9452 46.1807 15.566 46.9898 16.3421 47.2594L17.0406 43.9075Z" fill="black"/>
<path d="M13.4703 37.7044L13.0046 36.4714C13.3927 36.3558 14.0912 36.0862 14.3628 35.4311C14.6733 34.6991 14.4017 34.0826 14.1688 33.7359L15.3718 33.1965C15.6823 33.6203 16.1092 34.7376 15.6047 35.9706C15.1002 37.1264 14.0136 37.5888 13.4703 37.7044ZM15.1002 39.284L15.7987 37.6273L19.9122 39.3226V39.284L17.0405 34.622L17.6226 33.1965L24.2584 35.932L23.5599 37.5888L19.4465 35.8935V35.932L22.3182 40.594L21.7361 42.0195L15.1002 39.284Z" fill="black"/>
<path d="M20.7666 26.4142L18.6322 28.6874L17.468 27.6086L23.0561 21.6366L23.871 23.1393L21.9696 25.1428L28.1397 30.845L26.9755 32.1165L20.7666 26.4142Z" fill="black"/>
<path d="M32.836 29.7666L31.4002 30.8839L25.3464 23.1782L26.7823 22.0609L27.3644 22.7929H27.4032C27.4032 22.0994 27.7136 21.1747 28.5286 20.5197C30.0808 19.2868 32.2151 19.595 33.5734 21.3288C34.9316 23.0626 34.6987 25.1817 33.1077 26.3761C32.2928 27.0311 31.2838 27.1081 30.6241 26.9155H30.5853L32.836 29.7666ZM31.8659 25.3743C32.7972 24.6423 32.8748 23.4094 32.0987 22.4076C31.3226 21.4444 30.1196 21.2132 29.1883 21.9067C28.2569 22.6388 28.1793 23.8717 28.9554 24.8349C29.6928 25.8752 30.9345 26.1064 31.8659 25.3743Z" fill="black"/>
<path d="M42.2637 14.3163L44.0876 14.0466L44.4757 16.7436L47.3085 16.3583L46.9204 13.6613L48.7443 13.3916L49.7533 20.4424L47.9294 20.712L47.5413 17.8609L44.7084 18.2462L45.0965 21.0973L43.2727 21.367L42.2637 14.3163Z" fill="black"/>
<path d="M50.53 16.5902C50.8793 14.4326 52.6644 13.1612 54.8375 13.5079C55.8853 13.6621 56.7778 14.1629 57.3987 14.9335L56.0793 15.8196C55.8076 15.4343 55.3032 15.1261 54.6823 15.0105C53.5181 14.8179 52.6256 15.627 52.4315 16.8985C52.2375 18.1699 52.8196 19.2101 53.9838 19.4028C54.6435 19.5184 55.1868 19.3643 55.5748 19.0946L56.545 20.366C55.73 20.9054 54.7211 21.0596 53.6733 20.9054C51.4226 20.5201 50.1419 18.7478 50.53 16.5902Z" fill="black"/>
<path d="M59.1829 14.3937L65.353 16.4742L63.0245 23.2167L61.3172 22.6388L63.1799 17.2833L60.4634 16.3586L58.6007 21.7141L56.8933 21.1361L59.1829 14.3937Z" fill="black"/>
<path d="M65.2785 20.2498C66.4813 18.4005 68.6936 17.9767 70.5174 19.1325C72.3412 20.2883 72.8845 22.4845 71.6817 24.3339C70.4783 26.1833 68.2666 26.6071 66.4428 25.4513C64.5798 24.2569 64.0751 22.0607 65.2785 20.2498ZM70.0904 23.2936C70.7891 22.2148 70.6337 21.0204 69.6633 20.404C68.6936 19.7875 67.5294 20.1343 66.8307 21.2131C66.132 22.2533 66.2874 23.4863 67.2577 24.1027C68.2274 24.7577 69.3917 24.3724 70.0904 23.2936Z" fill="black"/>
<path d="M69.1566 30.6926L67.8755 29.3827L74.9773 22.6016L76.2578 23.9116L75.5983 24.5666L75.6369 24.6051C76.3355 24.5281 77.3059 24.7592 78.0431 25.4912C79.4398 26.9168 79.3236 29.0359 77.7323 30.577C76.1416 32.0796 74.007 32.0796 72.6103 30.6541C71.873 29.8835 71.7176 28.9203 71.7953 28.2268L71.7562 28.1883L69.1566 30.6926ZM73.4252 29.2671C74.2401 30.1147 75.4821 30.0762 76.4132 29.19C77.3059 28.3424 77.4221 27.1094 76.6072 26.2618C75.7923 25.4142 74.5503 25.4527 73.6577 26.3389C72.688 27.1865 72.6103 28.4194 73.4252 29.2671Z" fill="black"/>
<path d="M80.7597 31.7705L79.596 29.8441L80.8765 29.112L84.2139 34.6602L82.6612 34.9299L81.6914 33.3502L76.8019 36.2399L75.8701 34.6987L80.7597 31.7705Z" fill="black"/>
<path d="M80.488 46.6042L89.9955 51.112L89.8015 52.4991L82.2341 53.6935V53.732L89.142 57.0454L88.9474 58.4325L78.5474 60.0121L78.819 58.1628L85.8431 57.2381V57.1995L79.44 54.0788L79.6731 52.5376L86.6966 51.4202V51.3817L80.2549 48.492L80.488 46.6042Z" fill="black"/>
<path d="M82.1972 61.0512C84.1758 61.9761 84.8745 64.1334 83.9433 66.0599C83.0122 68.0246 80.8776 68.7953 78.8984 67.871C76.9192 66.946 76.2211 64.7887 77.1523 62.8622C78.1226 60.8971 80.218 60.1265 82.1972 61.0512ZM79.7525 66.2141C80.9161 66.7534 82.0804 66.4838 82.5851 65.4434C83.0892 64.403 82.5851 63.3244 81.4209 62.7851C80.2957 62.2457 79.0923 62.5154 78.5882 63.5558C78.0835 64.5573 78.5882 65.6748 79.7525 66.2141Z" fill="black"/>
<path d="M78.5118 68.4115C80.2194 69.7598 80.491 71.956 79.1328 73.6511C78.4726 74.4607 77.6192 75.0382 76.6488 75.1536L76.4941 73.5739C76.9596 73.4974 77.4638 73.266 77.8908 72.7267C78.628 71.8406 78.3564 70.6459 77.3475 69.8369C76.3387 69.028 75.1352 69.0662 74.398 69.9523C73.9716 70.4534 73.8547 70.9927 73.8939 71.4938L72.3417 71.7246C72.264 70.7613 72.6134 69.7987 73.2729 68.9891C74.592 67.294 76.8043 67.0626 78.5118 68.4115Z" fill="black"/>
<path d="M76.0659 76.6562L74.7854 77.9273L72.767 75.9237L72.2237 76.4637L72.8062 79.8538L71.4088 81.241L70.7107 77.1184L66.0151 76.5019L67.5287 74.9993L71.1372 75.5004L71.7196 74.9222L69.6627 72.8803L70.9432 71.6085L76.0659 76.6562Z" fill="black"/>
<path d="M65.6248 76.9258L70.7083 81.9729L68.1467 84.5158C67.0993 85.5562 65.8188 85.8647 64.9647 85.0169C64.4214 84.4775 64.4606 83.7068 64.6545 83.2829L64.6153 83.2446C63.8396 83.6686 62.9855 83.5914 62.4422 83.0521C61.4723 82.0889 61.7051 80.7788 62.8307 79.6613L65.6248 76.9258ZM63.9558 80.432C63.5288 80.856 63.4517 81.3564 63.8396 81.7421C64.1889 82.0889 64.7322 82.0117 65.1586 81.5878L66.4397 80.316L65.2755 79.1603L63.9558 80.432ZM66.2452 82.2814C65.8188 82.7053 65.7796 83.1675 66.1289 83.5526C66.4783 83.8994 66.9439 83.8611 67.3709 83.4372L68.4575 82.3585L67.3317 81.241L66.2452 82.2814Z" fill="black"/>
<path d="M60.2695 92.3372L58.9889 93.6083L53.9053 88.5613L55.1859 87.2895L60.2695 92.3372ZM63.9564 88.6767L62.1711 86.9045L61.0456 88.022C59.8426 89.216 58.4068 89.4474 57.359 88.407C56.3113 87.3667 56.5441 85.9024 57.7471 84.7466L60.1531 82.3579L65.2369 87.4055L63.9564 88.6767ZM58.8725 85.479C58.368 85.9795 58.2128 86.5959 58.7172 87.0587C59.2217 87.5592 59.8426 87.3667 60.3083 86.9045L61.2397 85.9795L59.8038 84.5541L58.8725 85.479Z" fill="black"/>
<path d="M35.048 21.9069C34.6599 20.7895 35.1256 19.364 37.3763 18.5549C37.7256 18.4393 38.3077 18.2852 38.7345 18.1696L38.657 17.977C38.3853 17.2449 37.648 17.0908 36.9106 17.3605C36.3286 17.5531 35.7465 18.054 35.3584 18.5549L33.8838 17.8999C34.4271 17.0137 35.4361 16.2046 36.445 15.8579C38.3077 15.1644 39.7823 15.7038 40.4032 17.4375L41.9942 21.7528L40.3256 22.3692L40.0928 21.6757H40.054C39.8211 22.3692 39.2778 22.9086 38.3465 23.2554C36.9495 23.7563 35.5136 23.1783 35.048 21.9069ZM39.3166 19.7108L39.2003 19.4025C38.8122 19.4796 38.3853 19.5952 37.9196 19.7493C36.9495 20.0961 36.5614 20.674 36.7943 21.2519C36.9495 21.7143 37.5316 22.0225 38.3077 21.7143C39.2778 21.406 39.5883 20.4813 39.3166 19.7108Z" fill="black"/>
<path d="M79.7892 37.0091C80.9149 36.6623 82.3502 37.1632 83.088 39.4364C83.2043 39.7831 83.3597 40.3611 83.4367 40.8234L83.6313 40.7464C84.3685 40.5152 84.5625 39.7831 84.2908 39.0125C84.0969 38.4347 83.6313 37.8182 83.1266 37.4329L83.8253 36.0074C84.7179 36.5852 85.4551 37.587 85.8044 38.6273C86.4248 40.5152 85.843 41.9407 84.0969 42.5187L79.7115 43.9442L79.1682 42.249L79.8669 42.0178V41.9793C79.1682 41.7481 78.6641 41.1702 78.3533 40.2455C77.8491 38.8199 78.4701 37.4329 79.7892 37.0091ZM81.8846 41.3243L82.1954 41.2087C82.1177 40.8234 82.04 40.3996 81.8846 39.9373C81.5744 38.974 80.992 38.5502 80.4101 38.7429C79.9446 38.897 79.6338 39.4364 79.8669 40.2455C80.177 41.2472 81.0697 41.594 81.8846 41.3243Z" fill="black"/>
</svg>
