<svg width="52" height="51" viewBox="0 0 52 51" fill="none" xmlns="http://www.w3.org/2000/svg">
<path d="M25.6015 3.10779C17.5132 3.10779 10.939 9.68201 10.939 17.7703C10.939 32.4328 25.6015 41.1586 25.6015 41.1586C25.6015 41.1586 40.264 33.4687 40.264 17.7703C40.264 9.64216 33.6897 3.10779 25.6015 3.10779ZM25.6413 39.2461C22.7327 37.2539 12.5327 29.4047 12.5327 17.7304C12.5327 10.5187 18.3897 4.66169 25.6015 4.66169C32.8132 4.66169 38.6702 10.5187 38.6702 17.7304C38.6702 30.2414 28.5897 37.4133 25.6413 39.2461Z" fill="black"/>
<path d="M25.6016 8.36719C30.8609 8.36719 35.1641 12.6703 35.1641 17.9297C35.1641 23.1891 30.8609 27.4922 25.6016 27.4922C20.3422 27.4922 16.0391 23.1891 16.0391 17.9297C16.0391 12.6703 20.3422 8.36719 25.6016 8.36719ZM25.6016 7.57031C19.8641 7.57031 15.2422 12.1922 15.2422 17.9297C15.2422 23.6672 19.8641 28.2891 25.6016 28.2891C31.3391 28.2891 35.9609 23.6672 35.9609 17.9297C35.9609 12.1922 31.3391 7.57031 25.6016 7.57031Z" fill="black"/>
<path d="M36.1601 32.5922C36.0007 32.8313 35.8414 33.0703 35.6421 33.2696C41.6585 34.5844 45.2843 36.975 45.2843 39.2461C45.2843 42.593 37.3953 46.2188 25.6015 46.2188C13.8078 46.2188 5.9187 42.6328 5.9187 39.2461C5.9187 36.9352 9.62417 34.5446 15.7203 33.2297C15.5609 32.9907 15.3617 32.7914 15.2023 32.5524C9.14605 33.9071 5.12183 36.3774 5.12183 39.2461C5.12183 43.5492 14.2859 47.0157 25.6015 47.0157C36.9171 47.0157 46.0812 43.5492 46.0812 39.2461C46.121 36.4172 42.1367 33.9469 36.1601 32.5922Z" fill="black"/>
</svg>
